<svg width="18" height="14" viewBox="0 0 18 14" fill="none" xmlns="http://www.w3.org/2000/svg">
<path d="M16.2 14H1.8C1.32261 14 0.864773 13.8156 0.527208 13.4874C0.189642 13.1592 0 12.7141 0 12.25V1.67388C0.0201894 1.22307 0.218708 0.797264 0.55411 0.485363C0.889512 0.173462 1.33587 -0.000426334 1.8 7.8498e-07H16.2C16.6774 7.8498e-07 17.1352 0.184375 17.4728 0.512564C17.8104 0.840752 18 1.28587 18 1.75V12.25C18 12.7141 17.8104 13.1592 17.4728 13.4874C17.1352 13.8156 16.6774 14 16.2 14ZM1.8 3.3845V12.25H16.2V3.3845L9 8.05L1.8 3.3845ZM2.52 1.75L9 5.95L15.48 1.75H2.52Z" fill="#098A5B"/>
</svg>
